<svg width="108" height="106" viewBox="0 0 108 106" fill="none" xmlns="http://www.w3.org/2000/svg">
<g clip-path="url(#clip0_59628_39175)">
<path d="M67.7953 33.4091C67.7953 35.5399 66.1159 37.1972 63.9567 37.1972C61.7975 37.1972 60.1182 35.5399 60.1182 33.4091C60.1182 31.2784 61.7975 29.6211 63.9567 29.6211C66.1159 29.6211 67.7953 31.2784 67.7953 33.4091Z" fill="#002048"/>
<path d="M83.8688 95.9119C82.9091 95.9119 81.9495 95.4384 81.3497 94.7282C80.3901 93.426 80.63 91.532 81.9495 90.4666C94.0649 81.7067 101.262 67.7383 101.262 52.9412C101.382 27.3719 80.1501 6.41925 53.9999 6.41925C51.7208 6.41925 49.4416 6.53763 47.1625 6.89276V72.7101C47.1625 74.3674 45.843 75.6695 44.0436 75.6695C42.3643 75.6695 40.9248 74.3674 40.9248 72.7101V4.28847C40.9248 2.86796 42.0044 1.56581 43.4439 1.32906C46.9226 0.618801 50.4013 0.263672 53.9999 0.263672C83.5089 0.263672 107.5 23.8206 107.5 52.8229C107.5 69.514 99.343 85.3764 85.6681 95.2017C85.0683 95.7935 84.4685 95.9119 83.8688 95.9119Z" fill="#002048"/>
<path d="M54 105.618C24.491 105.618 0.5 81.9424 0.5 53.0585C0.5 36.3674 8.65695 20.5049 22.3318 10.6797C23.7713 9.61428 25.6906 9.96941 26.6502 11.2716C27.6099 12.5737 27.37 14.4677 26.0504 15.5331C13.815 24.1746 6.61771 38.2614 6.61771 53.0585C6.61771 78.7462 27.8498 99.5805 54 99.5805C56.2791 99.5805 58.5583 99.4621 60.8374 99.107V55.8995C60.8374 54.2422 62.157 52.9401 63.9563 52.9401C65.6357 52.9401 67.0751 54.2422 67.0751 55.8995V101.593C67.0751 103.013 65.9955 104.316 64.5561 104.552C61.0774 105.263 57.5987 105.618 54 105.618Z" fill="#002048"/>
</g>
<defs>
<clipPath id="clip0_59628_39175">
<rect width="107" height="105" fill="white" transform="translate(0.5 0.5)"/>
</clipPath>
</defs>
</svg>
